<?xml version="1.0" encoding="utf-8"?>
<!-- Generator: Adobe Illustrator 23.0.2, SVG Export Plug-In . SVG Version: 6.00 Build 0)  -->
<svg version="1.1" id="dassword-logo" xmlns="http://www.w3.org/2000/svg" xmlns:xlink="http://www.w3.org/1999/xlink" x="0px"
	 y="0px" viewBox="0 0 847.6 120" style="enable-background:new 0 0 847.6 120;" xml:space="preserve">
<style type="text/css">
	.st0{stroke:#000000;}
	.st1{fill:none;stroke:#4ECCA3;stroke-width:4;stroke-miterlimit:10;}
	.st2{fill:#4ECCA3;stroke:#4ECCA3;}
	.st3{fill:#4ECCA3;stroke:#4ECCA3;stroke-width:1.5;stroke-miterlimit:10;}
	.st4{fill:#4ECCA3;stroke:#4ECCA3;stroke-miterlimit:10;}
</style>
<path class="st0" d="M178.7,49.9c-2.2-8.5-7.5-15.9-14.9-20.8c-6.8-4.6-14.9-7.1-23.1-7c-6.2-0.1-18.4-0.1-18.4-0.1l0.1,5.1
	c0,0,10.2,0.1,15.4,0c6.6,0,13,1,18.9,4c6.3,2.9,11.5,8,14.4,14.3c3.3,7.1,4.2,15.1,2.5,22.7c-1,5.7-3.6,11-7.6,15.2
	c-6.5,6.9-14.6,10.2-24,10.6l-45.6-0.1V99c0.5,0.1,13.1,0,13.6,0h28.2c5.4,0,10.9-0.8,16.1-2.4c6.6-2.1,12.5-6,17-11.3
	c4.2-5,7-11.1,8-17.6C180.4,61.8,180.2,55.7,178.7,49.9z"/>
<rect x="19.1" y="18" class="st1" width="76" height="85"/>
<path class="st0" d="M54.1,66.3L42,78.7l-3.1-3.1l12.1-12.2H32.7v-5.6h18.2l-3-3.2c-1.1-1.2-2.1-2.2-3.2-3.2s-2-1.9-3-3
	s-2-2-2.9-2.9l3.2-3.2l12.1,12.1V36.2h5.8v18.1l12.3-12.1l3,3.1L62.9,57.8h18.6v5.6H62.9l12.3,12.3l-2.8,3L59.9,66.4v18.5h-5.8V66.3
	z"/>
<path class="st2" d="M249.6,98.8l35.4-77h5.6l35.4,76.9h-5.9L288,28.2h-0.5l-32,70.6H249.6z"/>
<path class="st2" d="M344.2,96.4c-4.5-1.5-8.7-4.1-12-7.5l2.5-4.2c3.1,3.1,6.9,5.5,11,6.9c4.6,1.9,9.5,2.8,14.4,2.8
	c7.4,0,12.9-1.4,16.6-4.2c3.6-2.5,5.7-6.5,5.6-10.9c0.1-3-0.9-6-3-8.3c-2.1-2.1-4.6-3.8-7.4-4.7c-3.9-1.3-7.8-2.5-11.8-3.4
	c-4.6-1.1-9.1-2.5-13.5-4.1c-3.4-1.3-6.4-3.4-8.7-6.2c-2.4-2.8-3.6-6.4-3.6-11c0-3.7,1-7.3,3-10.3c2.3-3.3,5.4-5.8,9.1-7.4
	c4.1-1.9,9.1-2.8,15.2-2.8c4.2,0,8.5,0.6,12.5,1.9c3.8,1.1,7.4,2.8,10.7,5.1l-2.1,4.5c-3.1-2.1-6.5-3.7-10.1-4.8
	c-3.6-1.1-7.3-1.6-11-1.6c-7.1,0-12.5,1.4-16.2,4.3c-3.5,2.6-5.6,6.7-5.5,11.1c-0.1,3,0.9,6,3,8.3c2.1,2.1,4.6,3.8,7.4,4.7
	c3.9,1.4,7.9,2.6,12,3.5c4.6,1.1,9.1,2.5,13.5,4.1c3.3,1.3,6.3,3.3,8.7,5.9c2.3,2.8,3.5,6.4,3.5,10.9c0,3.6-1,7.2-3,10.2
	c-2.4,3.3-5.6,5.8-9.4,7.4c-4.2,1.9-9.4,2.8-15.4,2.8C354.8,99.4,349.4,98.4,344.2,96.4z"/>
<path class="st2" d="M411.2,96.4c-4.5-1.5-8.7-4.1-12-7.5l2.5-4.2c3.1,3.1,6.9,5.5,11,6.9c4.6,1.9,9.5,2.8,14.4,2.8
	c7.4,0,12.9-1.4,16.6-4.2c3.6-2.5,5.7-6.5,5.6-10.9c0.1-3-0.9-6-3-8.3c-2.1-2.1-4.6-3.8-7.4-4.7c-3.9-1.3-7.8-2.5-11.8-3.4
	c-4.6-1.1-9.1-2.5-13.5-4.1c-3.4-1.3-6.4-3.4-8.7-6.2c-2.4-2.8-3.6-6.4-3.6-11c0-3.7,1-7.3,3-10.3c2.3-3.3,5.4-5.8,9.1-7.4
	c4.1-1.9,9.1-2.8,15.2-2.8c4.2,0,8.5,0.6,12.5,1.9c3.8,1.1,7.4,2.8,10.7,5.1l-2.1,4.5c-3.1-2.1-6.5-3.7-10.1-4.8
	c-3.6-1.1-7.3-1.6-11-1.6c-7.1,0-12.5,1.4-16.2,4.3c-3.5,2.6-5.6,6.7-5.5,11.1c-0.1,3,0.9,6,3,8.3c2.1,2.1,4.6,3.8,7.4,4.7
	c3.9,1.4,7.9,2.6,12,3.5c4.6,1.1,9.1,2.5,13.5,4.1c3.3,1.3,6.3,3.3,8.7,5.9c2.3,2.8,3.5,6.4,3.5,10.9c0,3.6-1,7.2-3,10.2
	c-2.4,3.3-5.6,5.8-9.4,7.4c-4.2,1.9-9.4,2.8-15.4,2.8C421.8,99.4,416.4,98.4,411.2,96.4z"/>
<path class="st3" d="M537.6,97.9l-18.9-38.7l-18.4,38.7L463.1,22h4l33.1,66.3l16.2-33.4L500.3,22h4.3l14,28.4L532.2,22h4.1
	l-15.5,32.7l16.8,33.5L569.5,22h4L537.6,97.9z"/>
<path class="st2" d="M601.7,94.2c-6-3.3-10.9-8.1-14.3-14c-7-12.3-7-27.5,0-39.8c3.4-5.9,8.3-10.8,14.3-14.1
	c12.8-6.7,28.1-6.7,40.9,0c6,3.3,10.9,8.1,14.4,14c6.9,12.4,6.9,27.6,0,40c-3.5,5.9-8.4,10.7-14.4,14
	C629.8,101.1,614.5,101,601.7,94.2L601.7,94.2z M639.6,89.8c5.1-2.9,9.4-7.1,12.3-12.2c3-5.3,4.6-11.2,4.5-17.3
	c0.1-6.1-1.5-12.1-4.5-17.4c-2.9-5.1-7.2-9.3-12.3-12.1c-10.9-5.9-24.1-5.9-35,0c-5.2,2.8-9.5,7-12.4,12.1c-3,5.3-4.6,11.3-4.5,17.4
	c-0.1,6.1,1.5,12,4.5,17.3c2.9,5.1,7.2,9.4,12.4,12.2C615.6,95.7,628.7,95.7,639.6,89.8z"/>
<path class="st2" d="M735,98.8l-18-25.3h-29.9v25.3h-5.4v-30c0.5,0,1.2-0.1,1.8-0.1c9.1,0,18.4,0.1,27.6,0c4.9,0.1,9.8-1,14.2-3.4
	c4.9-2.8,8.2-7.7,8.9-13.2c0.8-4,0.5-8.2-0.9-12.1c-1.3-3.7-3.8-6.9-7.2-8.9c-4.4-2.7-9.5-4.1-14.7-4.1c-9.3-0.1-18.8-0.1-28.2-0.1
	h-1.7v-5c0.3,0,0.5-0.1,0.9-0.1c9.6,0,19.1-0.1,28.7,0.1c7,0.2,13.8,1.8,19.6,6c4.1,2.9,7,7.2,8.3,12.1c1.7,5.9,1.5,12.1-0.8,17.8
	c-2.3,6-7.1,10.7-13.2,12.9L722,72c6.5,8.9,12.8,17.7,19.3,26.8L735,98.8z"/>
<path class="st2" d="M760.9,21.9c0.3,0,0.7-0.1,0.9-0.1c10.3,0,20.7-0.1,31.1,0.1c8.2-0.1,16.3,2.4,23.1,7
	c7.3,4.9,12.6,12.3,14.8,20.8c1.5,5.8,1.8,11.8,0.8,17.7c-1,6.5-3.8,12.6-8,17.6c-4.5,5.3-10.4,9.2-17,11.3
	c-5.2,1.6-10.6,2.4-16.1,2.4h-28.2c-0.5,0-1,0-1.4-0.1V60.5h5.5v33.1c0.4,0,0.7,0.1,1,0.1c8.9,0,17.9,0.2,27-0.1
	c9.3-0.3,17.5-3.6,24-10.6c4-4.2,6.6-9.5,7.6-15.2c1.7-7.7,0.8-15.7-2.5-22.8c-3-6.3-8.1-11.4-14.4-14.3c-5.9-3-12.3-4-18.9-4
	c-9.1,0.1-18.3,0-27.4,0c-0.6,0-1.2,0-1.8-0.1L760.9,21.9z"/>
<g>
	<path class="st4" d="M245.4,24.6c1.1,0.6,2.3,1.4,3.4,2.5c1.1,1,2.1,2.3,2.9,3.7c0.8,1.5,1.5,3.2,2.1,5.2c0.5,2,0.8,4.3,0.8,6.8
		c0,2.6-0.3,4.9-0.8,6.8c-0.5,1.9-1.2,3.6-2.1,5.1c-0.8,1.5-1.8,2.7-2.9,3.7c-1.1,1-2.3,1.8-3.4,2.4c-2.7,1.5-5.8,2.4-9.1,2.6h-36.8
		v35.5h-4.3V59h39.7c2.9-0.1,5.5-0.8,7.7-2c0.9-0.5,1.9-1.1,2.8-1.9c0.9-0.8,1.8-1.8,2.5-2.9c0.7-1.2,1.3-2.5,1.8-4
		c0.4-1.5,0.7-3.3,0.7-5.4s-0.2-3.8-0.7-5.4c-0.4-1.6-1-2.9-1.8-4.1c-0.7-1.2-1.6-2.1-2.5-2.9c-0.9-0.8-1.9-1.4-2.8-2
		c-2.2-1.2-4.8-1.9-7.7-2h-39.7V22h41.1C239.6,22.2,242.7,23.1,245.4,24.6z"/>
</g>
</svg>
