<svg id="dassword-logo" xmlns="http://www.w3.org/2000/svg" viewBox="0 0 815.59 89"><defs><style>.cls-1{fill:#eee;stroke:#eee;}.cls-2{fill:none;stroke-width:4px;}.cls-2,.cls-3,.cls-4,.cls-5{stroke:#4ecca3;}.cls-2,.cls-4,.cls-5{stroke-miterlimit:10;}.cls-3,.cls-4,.cls-5{fill:#4ecca3;}.cls-4{stroke-width:1.5px;}</style></defs><title>dpassword-white</title><path class="cls-1" d="M178.69,49.94a35.64,35.64,0,0,0-14.85-20.79,40.28,40.28,0,0,0-23.1-7C134.55,22,122.33,22,122.33,22l.1,5.09s10.25.06,15.45,0c6.6,0,13,1,18.92,4a29.35,29.35,0,0,1,14.41,14.3,35.2,35.2,0,0,1,2.48,22.69,29.75,29.75,0,0,1-7.59,15.18c-6.49,6.93-14.63,10.23-24,10.56l-45.55-.09V99c.47.09,13.09,0,13.57,0h28.16a52.65,52.65,0,0,0,16.06-2.42,37.27,37.27,0,0,0,17-11.33,35.77,35.77,0,0,0,8-17.6A41.67,41.67,0,0,0,178.69,49.94Z" transform="translate(-17.1 -16)"/><rect class="cls-2" x="2" y="2" width="76" height="85"/><path class="cls-1" d="M54.14,66.33,42,78.66l-3.08-3.09L50.93,63.38H32.7V57.75H50.93l-3-3.21c-1.07-1.16-2.15-2.23-3.22-3.22s-2-1.87-3-3-2-2-2.88-2.94L42,42.21,54.1,54.27V36.18h5.76V54.27L72.19,42.21l3,3.08L62.86,57.75H81.49v5.63H62.85L75.18,75.71l-2.81,3L59.9,66.38V84.87H54.14Z" transform="translate(-17.1 -16)"/><path class="cls-3" d="M249.64,98.82l35.42-77h5.61L326.1,98.71h-5.94L288,28.2h-.45l-32,70.62Z" transform="translate(-17.1 -16)"/><path class="cls-3" d="M344.24,96.4a29.86,29.86,0,0,1-12-7.48l2.53-4.18a29.38,29.38,0,0,0,11,6.93,37.24,37.24,0,0,0,14.41,2.75c7.37,0,12.87-1.43,16.61-4.18a12.92,12.92,0,0,0,5.61-10.89,11.51,11.51,0,0,0-3-8.25A19,19,0,0,0,372,66.37,113.93,113.93,0,0,0,360.19,63a124.6,124.6,0,0,1-13.53-4.07A21.34,21.34,0,0,1,338,52.77c-2.42-2.75-3.63-6.38-3.63-11a19.14,19.14,0,0,1,3-10.34,20.72,20.72,0,0,1,9.13-7.37c4.07-1.87,9.13-2.75,15.18-2.75a43.68,43.68,0,0,1,12.54,1.87,37,37,0,0,1,10.67,5.06l-2.09,4.51a37.42,37.42,0,0,0-10.12-4.84,38.72,38.72,0,0,0-11-1.65q-10.72,0-16.17,4.29A13.58,13.58,0,0,0,340,41.66a11.51,11.51,0,0,0,3,8.25,18.88,18.88,0,0,0,7.37,4.73,105.79,105.79,0,0,0,12,3.52,125.27,125.27,0,0,1,13.53,4.07,22.73,22.73,0,0,1,8.69,5.94c2.31,2.75,3.52,6.38,3.52,10.89a18.56,18.56,0,0,1-3,10.23,21.42,21.42,0,0,1-9.35,7.37c-4.18,1.87-9.35,2.75-15.4,2.75A43.69,43.69,0,0,1,344.24,96.4Z" transform="translate(-17.1 -16)"/><path class="cls-3" d="M411.23,96.4a29.86,29.86,0,0,1-12-7.48l2.53-4.18a29.38,29.38,0,0,0,11,6.93,37.24,37.24,0,0,0,14.41,2.75c7.37,0,12.87-1.43,16.61-4.18a12.92,12.92,0,0,0,5.61-10.89,11.51,11.51,0,0,0-3-8.25A19,19,0,0,0,439,66.37,113.93,113.93,0,0,0,427.18,63a124.6,124.6,0,0,1-13.53-4.07A21.34,21.34,0,0,1,405,52.77c-2.42-2.75-3.63-6.38-3.63-11a19.14,19.14,0,0,1,3-10.34,20.72,20.72,0,0,1,9.13-7.37c4.07-1.87,9.13-2.75,15.18-2.75a43.68,43.68,0,0,1,12.54,1.87,37,37,0,0,1,10.67,5.06l-2.09,4.51a37.42,37.42,0,0,0-10.12-4.84,38.72,38.72,0,0,0-11-1.65q-10.72,0-16.17,4.29A13.58,13.58,0,0,0,407,41.66a11.51,11.51,0,0,0,3,8.25,18.88,18.88,0,0,0,7.37,4.73,105.79,105.79,0,0,0,12,3.52,125.27,125.27,0,0,1,13.53,4.07,22.73,22.73,0,0,1,8.69,5.94c2.31,2.75,3.52,6.38,3.52,10.89a18.56,18.56,0,0,1-3,10.23,21.42,21.42,0,0,1-9.35,7.37c-4.18,1.87-9.35,2.75-15.4,2.75A43.69,43.69,0,0,1,411.23,96.4Z" transform="translate(-17.1 -16)"/><path class="cls-4" d="M537.58,97.92,518.7,59.23,500.31,97.92,463.15,22h4l33.12,66.25,16.16-33.43L500.31,22h4.25l14,28.38L532.23,22h4.14L520.82,54.72l16.76,33.53L569.5,22h4Z" transform="translate(-17.1 -16)"/><path class="cls-3" d="M601.69,94.2a37.06,37.06,0,0,1-14.3-14,40.18,40.18,0,0,1,0-39.82,37.34,37.34,0,0,1,14.3-14.08,43.88,43.88,0,0,1,40.92,0A38.27,38.27,0,0,1,657,40.3a41.39,41.39,0,0,1,0,40,38.27,38.27,0,0,1-14.41,14,43.48,43.48,0,0,1-40.92-.11Zm37.95-4.4A32.89,32.89,0,0,0,652,77.59a34,34,0,0,0,4.51-17.27A34.47,34.47,0,0,0,652,42.94a32.53,32.53,0,0,0-12.32-12.1,37,37,0,0,0-35,0,32,32,0,0,0-12.43,12.1,34.27,34.27,0,0,0-4.51,17.38,33.94,33.94,0,0,0,4.51,17.27A32.33,32.33,0,0,0,604.64,89.8,37,37,0,0,0,639.64,89.8Z" transform="translate(-17.1 -16)"/><path class="cls-3" d="M735,98.82l-18-25.3H687.1v25.3h-5.39v-30c.55,0,1.21-.11,1.76-.11,9.13,0,18.37.11,27.61,0a27.89,27.89,0,0,0,14.19-3.41,17.94,17.94,0,0,0,8.91-13.2A23.92,23.92,0,0,0,733.3,40a16.89,16.89,0,0,0-7.15-8.91A27.76,27.76,0,0,0,711.47,27c-9.35-.11-18.81-.11-28.16-.11h-1.65V21.94c.33,0,.55-.11.88-.11,9.57,0,19.14-.11,28.71.11,7,.22,13.75,1.76,19.58,6a21.64,21.64,0,0,1,8.25,12.1,27.5,27.5,0,0,1-.77,17.82A21.83,21.83,0,0,1,725.1,70.77L722,72c6.49,8.91,12.76,17.71,19.25,26.84Z" transform="translate(-17.1 -16)"/><path class="cls-3" d="M760.86,21.93c.33,0,.66-.11.88-.11,10.34,0,20.68-.11,31.13.11a40.32,40.32,0,0,1,23.1,7,35.64,35.64,0,0,1,14.85,20.79,41.84,41.84,0,0,1,.77,17.71,36,36,0,0,1-8,17.6,37.37,37.37,0,0,1-17.05,11.33,52.74,52.74,0,0,1-16.06,2.42H762.29a6.84,6.84,0,0,1-1.43-.11V60.54h5.5V93.65c.44,0,.66.11,1,.11,8.91,0,17.93.22,27-.11,9.35-.33,17.49-3.63,24-10.56A29.83,29.83,0,0,0,826,67.91a35.32,35.32,0,0,0-2.53-22.77A29.39,29.39,0,0,0,809,30.84c-5.94-3-12.32-4-18.92-4-9.13.11-18.26,0-27.39,0a10.34,10.34,0,0,1-1.76-.11Z" transform="translate(-17.1 -16)"/><path class="cls-5" d="M245.38,24.56a17.22,17.22,0,0,1,3.4,2.46,15.17,15.17,0,0,1,2.94,3.73,21.79,21.79,0,0,1,2.08,5.16,26.09,26.09,0,0,1,.82,6.85,25.48,25.48,0,0,1-.82,6.8,21.72,21.72,0,0,1-2.08,5.11,14.35,14.35,0,0,1-2.94,3.68,17.66,17.66,0,0,1-3.4,2.4,21.18,21.18,0,0,1-9.14,2.56H199.4V98.78h-4.26V59h39.68A17.56,17.56,0,0,0,242.54,57a15.38,15.38,0,0,0,2.84-1.89,12.48,12.48,0,0,0,2.54-2.91,15.38,15.38,0,0,0,1.77-4,19.57,19.57,0,0,0,.66-5.37,20.16,20.16,0,0,0-.66-5.42,15.3,15.3,0,0,0-1.77-4.09,12.69,12.69,0,0,0-2.54-2.91,21,21,0,0,0-2.84-2,17.56,17.56,0,0,0-7.72-2.05H195.14V22h41.1A21.31,21.31,0,0,1,245.38,24.56Z" transform="translate(-17.1 -16)"/></svg>